<svg width="25" height="22" viewBox="0 0 25 22" fill="none" xmlns="http://www.w3.org/2000/svg">
<path d="M7.14681 8.86543V12.6941C7.14681 13.3284 6.63258 13.8427 5.99822 13.8427H1.1486C0.514237 13.8427 0 13.3284 0 12.6941V8.86543C0 8.23106 0.514237 7.71683 1.1486 7.71683H5.99822C6.63258 7.71683 7.14681 8.23106 7.14681 8.86543ZM0 16.5227V20.3514C0 20.9858 0.514237 21.5 1.1486 21.5H5.99822C6.63258 21.5 7.14681 20.9858 7.14681 20.3514V16.5227C7.14681 15.8884 6.63258 15.3741 5.99822 15.3741H1.1486C0.514237 15.3741 0 15.8884 0 16.5227ZM5.99822 0.0595093H1.1486C0.514237 0.0595093 0 0.573746 0 1.20811V5.03677C0 5.67113 0.514237 6.18536 1.1486 6.18536H5.99822C6.63258 6.18536 7.14681 5.67113 7.14681 5.03677V1.20811C7.14681 0.573746 6.63258 0.0595093 5.99822 0.0595093ZM9.82687 21.5H23.3548C23.9892 21.5 24.5034 20.9858 24.5034 20.3514V16.5227C24.5034 15.8884 23.9892 15.3741 23.3548 15.3741H9.82687C9.19251 15.3741 8.67828 15.8884 8.67828 16.5227V20.3514C8.67828 20.9858 9.19251 21.5 9.82687 21.5ZM8.67828 1.20811V5.03677C8.67828 5.67113 9.19251 6.18536 9.82687 6.18536H23.3548C23.9892 6.18536 24.5034 5.67113 24.5034 5.03677V1.20811C24.5034 0.573746 23.9892 0.0595093 23.3548 0.0595093H9.82687C9.19251 0.0595093 8.67828 0.573746 8.67828 1.20811ZM9.82687 13.8427H23.3548C23.9892 13.8427 24.5034 13.3284 24.5034 12.6941V8.86543C24.5034 8.23106 23.9892 7.71683 23.3548 7.71683H9.82687C9.19251 7.71683 8.67828 8.23106 8.67828 8.86543V12.6941C8.67828 13.3284 9.19251 13.8427 9.82687 13.8427Z" fill="#303030"/>
</svg>
