<svg width="27" height="27" viewBox="0 0 27 27" fill="none" xmlns="http://www.w3.org/2000/svg">
<path d="M23.6442 14.9056C23.7127 14.5028 23.7127 14.0322 23.7127 13.5618C23.7127 13.0913 23.6442 12.6884 23.6442 12.2179L26.53 10.0008C26.8053 9.79931 26.8737 9.46342 26.6677 9.1274L23.9187 4.49093C23.7811 4.2219 23.3691 4.0881 23.0939 4.2219L19.6577 5.5658C18.9704 5.0284 18.1462 4.55786 17.3215 4.22191L16.8403 0.660953C16.7718 0.392574 16.4966 0.12355 16.153 0.12355H10.655C10.3115 0.12355 10.0363 0.392575 9.96781 0.660953L9.41813 4.22191C8.59329 4.55786 7.83758 5.02833 7.08123 5.5658L3.64503 4.22191C3.30138 4.0881 2.95774 4.22191 2.82019 4.49093L0.0712198 9.12746C-0.065683 9.39577 0.00267157 9.79931 0.208768 10.0008L3.16396 12.2179C3.16396 12.6884 3.09548 13.0913 3.09548 13.5618C3.09548 14.0322 3.16396 14.4351 3.16396 14.9056L0.278092 17.1228C0.00286588 17.3242 -0.0654887 17.6601 0.140479 17.9962L2.88945 22.6326C3.02706 22.9016 3.43913 23.0354 3.71429 22.9016L7.15055 21.5578C7.83778 22.0952 8.66197 22.5657 9.48674 22.9016L10.0364 26.4626C10.1055 26.7986 10.38 27 10.7236 27H16.2216C16.5652 27 16.8404 26.731 16.9089 26.4626L17.4592 22.9016C18.2834 22.5657 19.0398 22.0952 19.7954 21.5578L23.2317 22.9016C23.5752 23.0354 23.9189 22.9016 24.0565 22.6326L26.8055 17.9961C26.943 17.7278 26.874 17.3242 26.6679 17.1227L23.6442 14.9056ZM13.4041 18.2652C10.7236 18.2652 8.59342 16.1826 8.59342 13.5618C8.59342 10.941 10.7236 8.85837 13.4041 8.85837C16.0846 8.85837 18.2148 10.941 18.2148 13.5618C18.2148 16.1826 16.0846 18.2652 13.4041 18.2652Z" fill="#303030"/>
</svg>
